<?xml version="1.0" encoding="UTF-8"?>
<svg width="50px" height="50px" viewBox="0 0 50 50" version="1.1" xmlns="http://www.w3.org/2000/svg" xmlns:xlink="http://www.w3.org/1999/xlink">
    <!-- Generator: Sketch 61 (89581) - https://sketch.com -->
    <title>back-arrow</title>
    <desc>Created with Sketch.</desc>
    <g id="back-arrow" stroke="none" stroke-width="1" fill="none" fill-rule="evenodd">
        <g id="_ionicons_svg_md-arrow-round-back-copy" transform="translate(14.000000, 14.000000)" fill="#000000" fill-rule="nonzero">
            <path d="M20.0931772,8.47559873 L6.71439712,8.47559873 L11.9033632,3.4525531 C12.6473234,2.66177135 12.6473234,1.38386805 11.9033632,0.593086308 C11.159403,-0.197695436 9.95281212,-0.197695436 9.20260015,0.593086308 L0.562658977,9.07026661 C0.187552992,9.43718934 0,9.9369634 0,10.4873475 L0,10.5126525 C0,11.0630366 0.187552992,11.5628107 0.562658977,11.9297334 L9.19634839,20.4069137 C9.94656036,21.1976954 11.1531513,21.1976954 11.8971115,20.4069137 C12.6410717,19.6161319 12.6410717,18.3382286 11.8971115,17.5474469 L6.70814536,12.5244013 L20.0869255,12.5244013 C21.143474,12.5244013 22,11.6197469 22,10.5 C22.0062178,9.36127429 21.1497258,8.47559873 20.0931772,8.47559873 L20.0931772,8.47559873 Z" id="Path"></path>
        </g>
    </g>
</svg>