<?xml version="1.0" encoding="UTF-8"?>
<svg width="50px" height="50px" viewBox="0 0 50 50" version="1.1" xmlns="http://www.w3.org/2000/svg" xmlns:xlink="http://www.w3.org/1999/xlink">
    <!-- Generator: Sketch 61 (89581) - https://sketch.com -->
    <title>book</title>
    <desc>Created with Sketch.</desc>
    <g id="book" stroke="none" stroke-width="1" fill="none" fill-rule="evenodd">
        <g id="_ionicons_svg_md-book-copy" transform="translate(3.000000, 6.000000)" fill="#000000" fill-rule="nonzero">
            <path d="M40.0019231,0.0394111474 L22,3.40328727 L3.99807692,0.0394111474 C1.69230769,-0.31800069 0,1.81595822 0,3.99196559 L0,29.6940816 C0,31.8700889 1.69230769,33.1210304 3.99807692,33.646636 L22,37 L40.0019231,33.6361239 C42.3076923,33.1105182 44,31.8595768 44,29.6835694 L44,3.99196559 C44,1.81595822 42.3076923,-0.31800069 40.0019231,0.0394111474 Z M40.0019231,29.6835694 L24.0096154,33.0474456 L24.0096154,7.34532959 L40.0019231,3.98145347 L40.0019231,29.6835694 Z M19.9903846,33.0474456 L3.99807692,29.6835694 L3.99807692,3.99196559 L19.9903846,7.35584171 L19.9903846,33.0474456 Z" id="Shape"></path>
        </g>
    </g>
</svg>