<?xml version="1.0" encoding="UTF-8"?>
<svg width="70px" height="93px" viewBox="0 0 70 93" version="1.1" xmlns="http://www.w3.org/2000/svg" xmlns:xlink="http://www.w3.org/1999/xlink">
    <!-- Generator: Sketch 61 (89581) - https://sketch.com -->
    <title>microphone</title>
    <desc>Created with Sketch.</desc>
    <g id="microphone" stroke="none" stroke-width="1" fill="none" fill-rule="evenodd">
        <g id="Group-Copy" transform="translate(7.000000, 6.000000)" fill="#FFFFFF">
            <g id="_ionicons_svg_md-mic-copy">
                <path d="M28.4821429,51.4285714 C35.1953839,51.4285714 40.6886992,45.9064286 40.6886992,39.1582143 L40.6886992,12.2703571 C40.6886992,5.52214286 35.1953839,0 28.4821429,0 C21.7689018,0 16.2755865,5.52214286 16.2755865,12.2703571 L16.2755865,39.1582143 C16.2755865,45.9064286 21.7689018,51.4285714 28.4821429,51.4285714 Z M50.0465073,37.955 C50.0465073,50.2253571 39.6715307,58.8148214 28.4821429,58.8148214 C17.292755,58.8148214 6.91777846,50.2251786 6.91777846,37.955 L0,37.955 C0,51.8608929 10.9868086,63.5180357 24.4134687,65.3594643 L24.4134687,80 L32.550995,80 L32.550995,65.3594643 C45.9774771,63.3144643 56.9642857,51.8608929 56.9642857,37.955 L50.0465073,37.955 Z" id="Shape"></path>
            </g>
        </g>
    </g>
</svg>